@startuml
'https://plantuml.com/use-case-diagram
package "支付挂号模块" {
    package "边界类" as B {
        class 注册用户支付挂号费用界面
        class 注册用户选择支付方式界面
        class 注册用户查看预约记录界面
        class 支付系统支付接口
    }
    package "控制类" as C{
        class 支付挂号费用控制类
        class 选择可用的预约记录控制类
        class 选择支付方式控制类
    }
    package "实体类" as E {
        class 用户信息
        class 预约记录
        class 支付信息
    }
    B --> C
    C --> E
}
@enduml